<?xml version="1.0" encoding="UTF-8"?>
<svg width="28px" height="60px" viewBox="0 0 28 60" version="1.1" xmlns="http://www.w3.org/2000/svg" xmlns:xlink="http://www.w3.org/1999/xlink">
    <!-- Generator: Sketch 44.1 (41455) - http://www.bohemiancoding.com/sketch -->
    <title>Logo</title>
    <desc>Created with Sketch.</desc>
    <defs></defs>
    <g id="Page-1" stroke="none" stroke-width="1" fill="none" fill-rule="evenodd">
        <g id="Logo">
            <g>
                <path d="M17.0921567,57.6834767 C17.5840233,56.42861 18.0301567,55.2950767 18.47349,54.1601433 C20.6521233,48.5825433 23.0883567,43.0989767 24.6526233,37.29691 C25.3220567,34.8142433 25.6522233,32.2837433 25.8575567,29.71871 C26.26029,24.7008767 25.22919,19.8890767 23.7454233,15.1820433 C22.40259,10.92301 20.7431233,6.76337667 19.20639,2.56617667 C18.89489,1.71567667 19.1786233,0.594276667 19.95539,0.0844433333 C20.08699,0.24941 20.2757567,0.398743333 20.35019,0.591943333 C22.07359,5.05911 23.8504233,9.50714333 25.4746567,14.0102433 C26.5377233,16.9581767 27.1831233,20.03351 27.59729,23.1445433 C27.9799567,26.0182767 27.89129,28.9001767 27.70929,31.78651 C27.4059567,36.5957433 25.8272233,41.1114433 24.5940567,45.70951 C23.5767233,49.5037433 22.6060567,53.3105767 21.63189,57.1162433 C21.54019,57.47441 21.4312233,57.6916433 21.0212567,57.68791 C19.7717567,57.6757767 18.5220233,57.6834767 17.0921567,57.6834767" id="Fill-1" fill="#FFCC33"></path>
                <path d="M6.74667,57.6825667 C6.58660333,57.6783667 6.33670333,57.4392 6.29167,57.2663 C5.72513667,55.083 5.22300333,52.8829 4.63617,50.7052 C3.80643667,47.6252 2.86773667,44.5741333 2.07370333,41.4857333 C1.40077,38.8696 0.663436667,36.2436667 0.327903333,33.5752667 C-0.0178966667,30.8242667 -0.0437966667,28.0123667 0.0404366667,25.2345333 C0.0983033333,23.3256333 0.53137,21.4195333 0.888136667,19.5295333 C1.51113667,16.2274 2.54340333,13.0396 3.77400333,9.91736667 C4.96097,6.90643333 6.17593667,3.90646667 7.37970333,0.902066667 C7.41283667,0.819 7.45740333,0.740366667 7.49893667,0.6608 C7.61443667,0.440066667 7.73133667,0.220033333 7.84753667,-2.84217094e-14 C8.05637,0.185033333 8.36297,0.331333333 8.45490333,0.5628 C8.69943667,1.17903333 8.90663667,1.79666667 8.61823667,2.50436667 C7.64990333,4.8818 6.70863667,7.27066667 5.80190333,9.67236667 C4.41940333,13.3333667 3.36940333,17.0986667 2.57117,20.9234667 C2.21510333,22.6289 2.10893667,24.3933667 1.98387,26.138 C1.89567,27.3672 1.92997,28.609 1.97430333,29.8428667 C2.06927,32.4746333 2.47083667,35.0779333 3.24713667,37.5820667 C4.27147,40.8849 5.44653667,44.1434 6.63840333,47.3909333 C7.51433667,49.7779333 8.52187,52.1164 9.46943667,54.4772667 C9.88967,55.5242333 10.3059367,56.5726 10.75627,57.7017 C9.33643667,57.7017 8.04097,57.7166333 6.74667,57.6825667 Z" id="Fill-3" fill="#FFFFFF"></path>
            </g>
        </g>
    </g>
</svg>